<?xml version="1.0" encoding="utf-8"?>
<!-- Generator: Adobe Illustrator 17.1.0, SVG Export Plug-In . SVG Version: 6.00 Build 0)  -->
<!DOCTYPE svg PUBLIC "-//W3C//DTD SVG 1.1//EN" "http://www.w3.org/Graphics/SVG/1.1/DTD/svg11.dtd">
<svg version="1.1" id="Layer_1" xmlns="http://www.w3.org/2000/svg" xmlns:xlink="http://www.w3.org/1999/xlink" x="0px" y="0px"
	 viewBox="0 0 200 235" enable-background="new 0 0 200 235" xml:space="preserve">
<g>
	<rect display="none" opacity="0.2" enable-background="new    " width="200" height="235"/>
	<g>
		<g>
			<rect x="40" y="46.2" fill="#000000" width="120" height="14"/>
			<rect x="40" y="80.5" fill="#000000" width="120" height="14"/>
			<rect x="40" y="114.7" fill="#000000" width="120" height="14"/>
		</g>
		<g>
			<path fill="#000000" d="M40.7,161.7H45v3.7c1-1.3,2-2.2,2.8-2.8c1.4-1,3.1-1.5,4.9-1.5c2.1,0,3.8,0.5,5,1.5
				c0.7,0.6,1.4,1.4,2,2.6c1-1.4,2.1-2.4,3.4-3.1c1.3-0.7,2.8-1,4.4-1c3.5,0,5.9,1.3,7.2,3.8c0.7,1.4,1,3.2,1,5.5v17.4h-4.6v-18.2
				c0-1.7-0.4-2.9-1.3-3.6c-0.9-0.7-1.9-1-3.2-1c-1.7,0-3.2,0.6-4.5,1.7s-1.9,3.1-1.9,5.8v15.2H56v-17.1c0-1.8-0.2-3.1-0.6-3.9
				c-0.7-1.2-1.9-1.8-3.7-1.8c-1.7,0-3.2,0.6-4.5,1.9c-1.4,1.3-2,3.6-2,7v13.9h-4.4L40.7,161.7L40.7,161.7z"/>
			<path fill="#000000" d="M98.5,162.5c1.7,0.9,3,2,4,3.4c0.9,1.3,1.5,2.9,1.7,4.6c0.3,1.2,0.4,3.1,0.4,5.8h-19
				c0.1,2.7,0.7,4.8,1.9,6.4s3,2.4,5.4,2.4c2.3,0,4.1-0.8,5.4-2.3c0.8-0.9,1.3-1.9,1.6-3.1h4.3c-0.1,1-0.5,2-1.1,3.2
				s-1.4,2.1-2.2,2.9c-1.3,1.3-3,2.2-4.9,2.6c-1.1,0.3-2.2,0.4-3.6,0.4c-3.2,0-6-1.2-8.2-3.6c-2.2-2.4-3.4-5.7-3.4-9.9
				s1.1-7.6,3.4-10.2c2.3-2.6,5.2-3.9,8.9-3.9C95,161.2,96.8,161.6,98.5,162.5z M100.1,172.7c-0.2-1.9-0.6-3.4-1.2-4.6
				c-1.2-2.1-3.2-3.2-6-3.2c-2,0-3.7,0.7-5,2.2s-2.1,3.3-2.2,5.6H100.1z"/>
			<path fill="#000000" d="M110.1,161.7h4.2v3.7c1.2-1.5,2.5-2.6,3.9-3.3s2.9-1,4.6-1c3.7,0,6.2,1.3,7.5,3.9
				c0.7,1.4,1.1,3.4,1.1,6.1v16.8H127v-16.5c0-1.6-0.2-2.9-0.7-3.9c-0.8-1.6-2.2-2.4-4.2-2.4c-1,0-1.9,0.1-2.6,0.3
				c-1.2,0.4-2.3,1.1-3.2,2.1c-0.7,0.9-1.2,1.8-1.4,2.7c-0.2,0.9-0.3,2.2-0.3,3.9v13.7h-4.4v-26.1H110.1z"/>
			<path fill="#000000" d="M142.3,161.7v17.4c0,1.3,0.2,2.4,0.6,3.3c0.8,1.6,2.2,2.3,4.3,2.3c3,0,5-1.4,6.1-4.1
				c0.6-1.5,0.9-3.5,0.9-6v-12.8h4.4v26.1h-4.1V184c-0.6,1-1.3,1.8-2.1,2.5c-1.6,1.4-3.6,2.1-6,2.1c-3.7,0-6.2-1.2-7.5-3.7
				c-0.7-1.3-1.1-3.1-1.1-5.3v-17.8h4.5V161.7z"/>
		</g>
	</g>
</g>
</svg>
